inDegrees=yes
name=ik_S53_A02_T02
DataType=double
version=3
OpenSimVersion=4.3-2021-08-27-4bc7ad9
endheader
time	pelvis_tilt	pelvis_list	pelvis_rotation	pelvis_tx	pelvis_ty	pelvis_tz	hip_flexion_r	hip_adduction_r	hip_rotation_r	knee_angle_r	knee_angle_r_beta	ankle_angle_r	subtalar_angle_r	mtp_angle_r	hip_flexion_l	hip_adduction_l	hip_rotation_l	knee_angle_l	knee_angle_l_beta	ankle_angle_l	subtalar_angle_l	mtp_angle_l	lumbar_extension	lumbar_bending	lumbar_rotation	arm_flex_r	arm_add_r	arm_rot_r	elbow_flex_r	pro_sup_r	wrist_flex_r	wrist_dev_r	arm_flex_l	arm_add_l	arm_rot_l	elbow_flex_l	pro_sup_l	wrist_flex_l	wrist_dev_l
47.34999999999859	0.6192042720585536	-2.711754756692454	95.32320275520267	0	0.9399999999999999	0	-10.2559647721769	-1.563655433583619	-9.62199200305567	8.331912902017566	0.1454193131296022	0	0	0	11.81102130756965	-2.152578086164527	-5.924082553545913	-5.238264990812761	-0.09142497118163319	0	0	0	0	0	0	44.32776323628384	-44.32776323628384	4.996827525775887	84.95742101065497	85.00317274834474	0	0	44.32776323628384	-44.32776323628384	4.996827525775887	84.95742101065497	85.00317274834417	0	0
47.36666666666526	1.780033302773876	-2.77328432875452	95.77198933912106	0	0.9399999999999999	0	-9.832954805264096	-0.02664186328169526	-10.08897925042892	7.251872515309004	0.126569052327025	0	0	0	12.84335722433118	-3.495318694733918	-6.613186974443281	-5.016717044527165	-0.08755823006791801	0	0	0	0	0	0	44.32795413556804	-44.32795413556804	4.996829336945859	84.9574453200356	85.00317093717481	0	0	44.32795413556804	-44.32795413556804	4.996829336945859	84.9574453200356	85.00317093717425	0	0
47.38333333333193	2.102984813317978	-2.660185651817232	96.01743267994316	0	0.9399999999999999	0	-9.914268135461944	0.3473780041205274	-10.25074442351373	7.237400828335656	0.1263164737410221	0	0	0	12.65888983313435	-3.877448362448551	-6.793191330733404	-5.922351713218146	-0.1033645368567836	0	0	0	0	0	0	44.32803850361097	-44.32803850361097	4.996830138165008	84.95745607393587	85.0031701359557	0	0	44.32803850361097	-44.32803850361097	4.996830138165008	84.95745607393587	85.00317013595512	0	0
47.39999999999859	2.599409392218466	-2.136490193423684	96.59462818228663	0	0.9399999999999999	0	-9.805968873792514	1.231986843133136	-10.66438715619985	6.513975889518484	0.1136903266676239	0	0	0	12.85811217238036	-4.501862946954462	-7.87546281061207	-5.877216570377843	-0.1025767800058624	0	0	0	0	0	0	44.32882901444248	-44.32882901444248	4.996836830869094	84.95754590287612	85.00316344325181	0	0	44.32882901444248	-44.32882901444248	4.996836830869094	84.95754590287612	85.00316344325122	0	0
47.41666666666526	2.590055830713993	-2.1334910946297	96.62100021976424	0	0.9399999999999999	0	-9.353803502839654	1.566618249910167	-10.10187355707829	5.614234105574202	0.09798687012002874	0	0	0	12.6100442784369	-4.489823550672363	-8.731089572092474	-6.929960258190312	-0.1209506235377773	0	0	0	0	0	0	44.32758809821868	-44.32758809821868	4.996827231830501	84.95741706535355	85.00317304229011	0	0	44.32758809821868	-44.32758809821868	4.996827231830501	84.95741706535355	85.00317304228955	0	0
47.43333333333192	2.957673591015957	-1.490305341462958	97.08574406063643	0	0.9399999999999999	0	-9.818278158831909	2.616788513701716	-9.269537591696059	4.285600143512651	0.07479783292823726	0	0	0	12.71038514383714	-5.041539312004637	-9.682860488342037	-6.410015281262577	-0.1118758717611824	0	0	0	0	0	0	44.32778265281287	-44.32778265281287	4.996829079613413	84.95744186615006	85.00317119450727	0	0	44.32778265281287	-44.32778265281287	4.996829079613413	84.95744186615006	85.00317119450671	0	0
47.44999999999859	3.171701260980421	-0.8637305435082443	97.61043383904963	0	0.9399999999999999	0	-10.31934346374495	3.485854723647791	-8.54169156426282	2.89828179158607	0.05058455991377701	0	0	0	12.54933708371448	-5.448563538561506	-11.09344954718339	-6.598865825187248	-0.11517193554685	0	0	0	0	0	0	44.32791807831507	-44.32791807831507	4.996830489919109	84.95746079516279	85.00316978420165	0	0	44.32791807831507	-44.32791807831507	4.996830489919109	84.95746079516279	85.00316978420108	0	0
47.46666666666525	3.326107125976074	-0.5478831553226164	98.19150191975598	0	0.9399999999999999	0	-10.46539866637209	4.288735230073502	-8.182446119325357	1.455864880929841	0.02540963563638093	0	0	0	12.95821317334598	-5.747551856030531	-11.49005947002862	-5.701458211957795	-0.09950921796353226	0	0	0	0	0	0	44.32863597789065	-44.32863597789065	4.996836602135267	84.95754283284062	85.00316367198565	0	0	44.32863597789065	-44.32863597789065	4.996836602135267	84.95754283284062	85.00316367198509	0	0
47.48333333333192	3.378114259726194	-0.5544710521127525	98.84106431428127	0	0.9399999999999999	0	-10.27434578573946	4.71208555833813	-8.617367086438493	0.2989294365253558	0.005217302898498856	0	0	0	13.47292690161197	-5.820735561366456	-12.17494500269146	-5.809938770214512	-0.1014025608795135	0	0	0	0	0	0	44.32879762779704	-44.32879762779704	4.996838134435041	84.95756339924728	85.0031621396859	0	0	44.32879762779704	-44.32879762779704	4.996838134435041	84.95756339924728	85.00316213968534	0	0
47.49999999999859	3.301939273071544	-0.6286580147360434	99.43486773843658	0	0.9399999999999999	0	-9.901377515372664	5.077987329928581	-8.568548036404623	-0.8136092626183364	-0.01420016045741319	0	0	0	14.17532671936297	-5.646864499282058	-12.44041273181047	-5.566152410880234	-0.09714768623768032	0	0	0	0	0	0	44.3289429915342	-44.3289429915342	4.996839511709334	84.95758188491413	85.00316076241167	0	0	44.3289429915342	-44.3289429915342	4.996839511709334	84.95758188491413	85.00316076241111	0	0
47.51666666666525	3.304996331712309	-0.6031195573972969	99.42078833990544	0	0.9399999999999999	0	-9.390932141835249	5.336361756178098	-8.211047300204802	-1.443355302390679	-0.02519130230283572	0	0	0	14.17837476648744	-5.79093942250805	-12.27851679791156	-5.39505140824649	-0.094161410388258	0	0	0	0	0	0	44.32906641989511	-44.32906641989511	4.996840678020109	84.95759753904517	85.00315959610091	0	0	44.32906641989511	-44.32906641989511	4.996840678020109	84.95759753904517	85.00315959610035	0	0
47.53333333333192	3.183713879309271	-0.6244770625343595	99.86164572162551	0	0.9399999999999999	0	-8.917646020805272	5.34755842190043	-8.365780692664178	-1.183106030580942	-0.02064909563383816	0	0	0	14.96247800300038	-5.659378914734018	-11.84007878421655	-3.824011710580004	-0.06674159498444154	0	0	0	0	0	0	44.32937291974625	-44.32937291974625	4.996843576205056	84.95763643825501	85.00315669791603	0	0	44.32937291974625	-44.32937291974625	4.996843576205056	84.95763643825501	85.00315669791547	0	0
